# xmcd
#
# Track frame offsets:
#        150
#        2719
#        21432
#        37561
#        63194
#        102751
#        104962
#        126903
#        140103
#        159524
#        173912
#        212578
#
# Disc length: 2923 seconds
#
# Revision: 0
# Processed by: cddbd v1.5.1PL2 Copyright (c) Steve Scherf et al.
# Submitted via: ExactAudioCopy v0.95a5
#
DISCID=a10b690c
DTITLE=Domotic - Ask For Tiger
DYEAR=2005
DGENRE=Electronic
TTITLE0=Meanwhile, In The Woods
TTITLE1=I Hate You For Ever
TTITLE2=Tonsil
TTITLE3=Hugs and Kisses
TTITLE4=Turquoise - Trotzdem
TTITLE5=Self-Service And Robots
TTITLE6=Not The Movie You Expected
TTITLE7=Captain Forest's Word Of Advice
TTITLE8=NYEPS Club
TTITLE9=There May Be A Tiger
TTITLE10=Animals Are Ugly And So Am I
TTITLE11=Animals (Reprise)
EXTD=
EXTT0=
EXTT1=
EXTT2=
EXTT3=
EXTT4=
EXTT5=
EXTT6=
EXTT7=
EXTT8=
EXTT9=
EXTT10=
EXTT11=
PLAYORDER=
